<svg width="32" height="32" viewBox="0 0 32 32" fill="none" xmlns="http://www.w3.org/2000/svg">
<mask id="path-1-inside-1" fill="white">
<path d="M9.29208 9.29199C9.38497 9.19886 9.49532 9.12497 9.61681 9.07456C9.7383 9.02415 9.86854 8.9982 10.0001 8.9982C10.1316 8.9982 10.2619 9.02415 10.3833 9.07456C10.5048 9.12497 10.6152 9.19886 10.7081 9.29199L16.0001 14.586L21.2921 9.29199C21.3851 9.19901 21.4954 9.12526 21.6169 9.07494C21.7384 9.02462 21.8686 8.99872 22.0001 8.99872C22.1316 8.99872 22.2618 9.02462 22.3832 9.07494C22.5047 9.12526 22.6151 9.19901 22.7081 9.29199C22.8011 9.38496 22.8748 9.49534 22.9251 9.61682C22.9754 9.7383 23.0013 9.8685 23.0013 9.99999C23.0013 10.1315 22.9754 10.2617 22.9251 10.3832C22.8748 10.5046 22.8011 10.615 22.7081 10.708L17.4141 16L22.7081 21.292C22.8011 21.385 22.8748 21.4953 22.9251 21.6168C22.9754 21.7383 23.0013 21.8685 23.0013 22C23.0013 22.1315 22.9754 22.2617 22.9251 22.3832C22.8748 22.5046 22.8011 22.615 22.7081 22.708C22.6151 22.801 22.5047 22.8747 22.3832 22.925C22.2618 22.9754 22.1316 23.0012 22.0001 23.0012C21.8686 23.0012 21.7384 22.9754 21.6169 22.925C21.4954 22.8747 21.3851 22.801 21.2921 22.708L16.0001 17.414L10.7081 22.708C10.6151 22.801 10.5047 22.8747 10.3832 22.925C10.2618 22.9754 10.1316 23.0012 10.0001 23.0012C9.86859 23.0012 9.73839 22.9754 9.61691 22.925C9.49543 22.8747 9.38505 22.801 9.29208 22.708C9.1991 22.615 9.12535 22.5046 9.07503 22.3832C9.02471 22.2617 8.99881 22.1315 8.99881 22C8.99881 21.8685 9.02471 21.7383 9.07503 21.6168C9.12535 21.4953 9.1991 21.385 9.29208 21.292L14.5861 16L9.29208 10.708C9.19895 10.6151 9.12507 10.5047 9.07465 10.3833C9.02424 10.2618 8.99829 10.1315 8.99829 9.99999C8.99829 9.86845 9.02424 9.73821 9.07465 9.61672C9.12507 9.49523 9.19895 9.38488 9.29208 9.29199Z"/>
</mask>
<path d="M9.29208 9.29199C9.38497 9.19886 9.49532 9.12497 9.61681 9.07456C9.7383 9.02415 9.86854 8.9982 10.0001 8.9982C10.1316 8.9982 10.2619 9.02415 10.3833 9.07456C10.5048 9.12497 10.6152 9.19886 10.7081 9.29199L16.0001 14.586L21.2921 9.29199C21.3851 9.19901 21.4954 9.12526 21.6169 9.07494C21.7384 9.02462 21.8686 8.99872 22.0001 8.99872C22.1316 8.99872 22.2618 9.02462 22.3832 9.07494C22.5047 9.12526 22.6151 9.19901 22.7081 9.29199C22.8011 9.38496 22.8748 9.49534 22.9251 9.61682C22.9754 9.7383 23.0013 9.8685 23.0013 9.99999C23.0013 10.1315 22.9754 10.2617 22.9251 10.3832C22.8748 10.5046 22.8011 10.615 22.7081 10.708L17.4141 16L22.7081 21.292C22.8011 21.385 22.8748 21.4953 22.9251 21.6168C22.9754 21.7383 23.0013 21.8685 23.0013 22C23.0013 22.1315 22.9754 22.2617 22.9251 22.3832C22.8748 22.5046 22.8011 22.615 22.7081 22.708C22.6151 22.801 22.5047 22.8747 22.3832 22.925C22.2618 22.9754 22.1316 23.0012 22.0001 23.0012C21.8686 23.0012 21.7384 22.9754 21.6169 22.925C21.4954 22.8747 21.3851 22.801 21.2921 22.708L16.0001 17.414L10.7081 22.708C10.6151 22.801 10.5047 22.8747 10.3832 22.925C10.2618 22.9754 10.1316 23.0012 10.0001 23.0012C9.86859 23.0012 9.73839 22.9754 9.61691 22.925C9.49543 22.8747 9.38505 22.801 9.29208 22.708C9.1991 22.615 9.12535 22.5046 9.07503 22.3832C9.02471 22.2617 8.99881 22.1315 8.99881 22C8.99881 21.8685 9.02471 21.7383 9.07503 21.6168C9.12535 21.4953 9.1991 21.385 9.29208 21.292L14.5861 16L9.29208 10.708C9.19895 10.6151 9.12507 10.5047 9.07465 10.3833C9.02424 10.2618 8.99829 10.1315 8.99829 9.99999C8.99829 9.86845 9.02424 9.73821 9.07465 9.61672C9.12507 9.49523 9.19895 9.38488 9.29208 9.29199Z" fill="#061948"/>
<path d="M9.29208 9.29199L11.4107 11.416L11.4161 11.4106L9.29208 9.29199ZM10.7081 9.29199L8.58408 11.4106L8.58636 11.4129L10.7081 9.29199ZM16.0001 14.586L13.8784 16.7069L16.0001 18.8294L18.1218 16.7069L16.0001 14.586ZM21.2921 9.29199L19.1708 7.17067L19.1704 7.17107L21.2921 9.29199ZM23.0013 9.99999H20.0013H23.0013ZM22.7081 10.708L24.829 12.8297L24.8294 12.8293L22.7081 10.708ZM17.4141 16L15.2932 13.8783L13.1706 16L15.2932 18.1217L17.4141 16ZM22.7081 21.292L24.8294 19.1707L24.829 19.1703L22.7081 21.292ZM23.0013 22H20.0013H23.0013ZM22.0001 23.0012V20.0012V23.0012ZM21.2921 22.708L19.1704 24.8289L19.1708 24.8293L21.2921 22.708ZM16.0001 17.414L18.1218 15.2931L16.0001 13.1705L13.8784 15.2931L16.0001 17.414ZM10.7081 22.708L12.8294 24.8293L12.8298 24.8289L10.7081 22.708ZM10.0001 23.0012V20.0012V23.0012ZM9.29208 21.292L7.17116 19.1703L7.17076 19.1707L9.29208 21.292ZM14.5861 16L16.707 18.1217L18.8295 16L16.707 13.8783L14.5861 16ZM9.29208 10.708L11.413 8.58626L11.4107 8.58399L9.29208 10.708ZM11.4161 11.4106C11.2303 11.5969 11.0096 11.7446 10.7666 11.8455L8.46701 6.30365C7.98104 6.5053 7.53964 6.80085 7.16808 7.17335L11.4161 11.4106ZM10.7666 11.8455C10.5236 11.9463 10.2631 11.9982 10.0001 11.9982V5.9982C9.47395 5.9982 8.95298 6.10199 8.46701 6.30365L10.7666 11.8455ZM10.0001 11.9982C9.73702 11.9982 9.47654 11.9463 9.23354 11.8455L11.5331 6.30365C11.0472 6.10199 10.5262 5.9982 10.0001 5.9982V11.9982ZM9.23354 11.8455C8.99056 11.7446 8.76986 11.5969 8.58408 11.4106L12.8321 7.17335C12.4605 6.80085 12.0191 6.5053 11.5331 6.30365L9.23354 11.8455ZM8.58636 11.4129L13.8784 16.7069L18.1218 12.4651L12.8298 7.17107L8.58636 11.4129ZM18.1218 16.7069L23.4138 11.4129L19.1704 7.17107L13.8784 12.4651L18.1218 16.7069ZM23.4134 11.4133C23.2278 11.5989 23.0075 11.7461 22.765 11.8466L20.4689 6.3033C19.9834 6.50438 19.5423 6.79912 19.1708 7.17067L23.4134 11.4133ZM22.765 11.8466C22.5225 11.947 22.2626 11.9987 22.0001 11.9987V5.99872C21.4746 5.99872 20.9543 6.10222 20.4689 6.3033L22.765 11.8466ZM22.0001 11.9987C21.7376 11.9987 21.4777 11.947 21.2352 11.8466L23.5313 6.3033C23.0458 6.10222 22.5255 5.99872 22.0001 5.99872V11.9987ZM21.2352 11.8466C20.9927 11.7461 20.7724 11.5989 20.5868 11.4133L24.8294 7.17067C24.4578 6.79912 24.0168 6.50438 23.5313 6.3033L21.2352 11.8466ZM20.5868 11.4133C20.4012 11.2277 20.2539 11.0074 20.1535 10.7649L25.6968 8.46877C25.4957 7.98331 25.2009 7.54221 24.8294 7.17067L20.5868 11.4133ZM20.1535 10.7649C20.053 10.5224 20.0013 10.2624 20.0013 9.99999H26.0013C26.0013 9.47455 25.8979 8.95424 25.6968 8.46877L20.1535 10.7649ZM20.0013 9.99999C20.0013 9.73752 20.053 9.47762 20.1535 9.2351L25.6968 11.5312C25.8979 11.0457 26.0013 10.5254 26.0013 9.99999H20.0013ZM20.1535 9.2351C20.2539 8.9926 20.4012 8.77226 20.5868 8.58667L24.8294 12.8293C25.2009 12.4578 25.4957 12.0167 25.6968 11.5312L20.1535 9.2351ZM20.5872 8.58627L15.2932 13.8783L19.535 18.1217L24.829 12.8297L20.5872 8.58627ZM15.2932 18.1217L20.5872 23.4137L24.829 19.1703L19.535 13.8783L15.2932 18.1217ZM20.5868 23.4133C20.4012 23.2277 20.2539 23.0074 20.1535 22.7649L25.6968 20.4688C25.4957 19.9833 25.2009 19.5422 24.8294 19.1707L20.5868 23.4133ZM20.1535 22.7649C20.053 22.5224 20.0013 22.2624 20.0013 22H26.0013C26.0013 21.4745 25.8979 20.9542 25.6968 20.4688L20.1535 22.7649ZM20.0013 22C20.0013 21.7375 20.053 21.4776 20.1535 21.2351L25.6968 23.5312C25.8979 23.0457 26.0013 22.5254 26.0013 22H20.0013ZM20.1535 21.2351C20.2539 20.9926 20.4012 20.7723 20.5868 20.5867L24.8294 24.8293C25.2009 24.4578 25.4957 24.0167 25.6968 23.5312L20.1535 21.2351ZM20.5868 20.5867C20.7724 20.4011 20.9927 20.2538 21.2352 20.1534L23.5313 25.6967C24.0168 25.4956 24.4578 25.2009 24.8294 24.8293L20.5868 20.5867ZM21.2352 20.1534C21.4777 20.0529 21.7376 20.0012 22.0001 20.0012V26.0012C22.5255 26.0012 23.0458 25.8978 23.5313 25.6967L21.2352 20.1534ZM22.0001 20.0012C22.2625 20.0012 22.5224 20.0529 22.765 20.1534L20.4689 25.6967C20.9543 25.8978 21.4746 26.0012 22.0001 26.0012V20.0012ZM22.765 20.1534C23.0075 20.2538 23.2278 20.4011 23.4134 20.5867L19.1708 24.8293C19.5423 25.2009 19.9834 25.4956 20.4689 25.6967L22.765 20.1534ZM23.4138 20.5871L18.1218 15.2931L13.8784 19.5349L19.1704 24.8289L23.4138 20.5871ZM13.8784 15.2931L8.58636 20.5871L12.8298 24.8289L18.1218 19.5349L13.8784 15.2931ZM8.58676 20.5867C8.77235 20.4011 8.99269 20.2538 9.23519 20.1534L11.5313 25.6967C12.0168 25.4956 12.4578 25.2009 12.8294 24.8293L8.58676 20.5867ZM9.23519 20.1534C9.47771 20.0529 9.73761 20.0012 10.0001 20.0012V26.0012C10.5255 26.0012 11.0458 25.8978 11.5313 25.6967L9.23519 20.1534ZM10.0001 20.0012C10.2625 20.0012 10.5224 20.0529 10.765 20.1534L8.46886 25.6967C8.95433 25.8978 9.47464 26.0012 10.0001 26.0012V20.0012ZM10.765 20.1534C11.0075 20.2538 11.2278 20.4011 11.4134 20.5867L7.17076 24.8293C7.54231 25.2009 7.9834 25.4956 8.46886 25.6967L10.765 20.1534ZM11.4134 20.5867C11.599 20.7723 11.7462 20.9926 11.8467 21.2351L6.30339 23.5312C6.50448 24.0167 6.79921 24.4578 7.17076 24.8293L11.4134 20.5867ZM11.8467 21.2351C11.9471 21.4776 11.9988 21.7375 11.9988 22H5.99881C5.99881 22.5254 6.10231 23.0457 6.30339 23.5312L11.8467 21.2351ZM11.9988 22C11.9988 22.2625 11.9471 22.5224 11.8467 22.7649L6.30339 20.4688C6.10231 20.9542 5.99881 21.4745 5.99881 22H11.9988ZM11.8467 22.7649C11.7462 23.0074 11.599 23.2277 11.4134 23.4133L7.17076 19.1707C6.79921 19.5422 6.50448 19.9833 6.30339 20.4688L11.8467 22.7649ZM11.413 23.4137L16.707 18.1217L12.4652 13.8783L7.17116 19.1703L11.413 23.4137ZM16.707 13.8783L11.413 8.58627L7.17116 12.8297L12.4652 18.1217L16.707 13.8783ZM11.4107 8.58399C11.597 8.76977 11.7447 8.99047 11.8456 9.23345L6.30374 11.5331C6.50539 12.019 6.80094 12.4604 7.17344 12.832L11.4107 8.58399ZM11.8456 9.23345C11.9464 9.47645 11.9983 9.73693 11.9983 9.99999H5.99829C5.99829 10.5261 6.10208 11.0471 6.30374 11.5331L11.8456 9.23345ZM11.9983 9.99999C11.9983 10.263 11.9464 10.5235 11.8456 10.7665L6.30374 8.46692C6.10208 8.95289 5.99829 9.47386 5.99829 9.99999H11.9983ZM11.8456 10.7665C11.7447 11.0095 11.597 11.2302 11.4107 11.416L7.17344 7.16799C6.80094 7.53955 6.50539 7.98095 6.30374 8.46692L11.8456 10.7665Z" fill="#061948" mask="url(#path-1-inside-1)"/>
</svg>
