<svg width="24" height="24" viewBox="0 0 24 24" fill="none" xmlns="http://www.w3.org/2000/svg">
<g clip-path="url(#clip0)">
<path d="M3.57969 21.196H17.8387L17.1577 18.991L18.7867 20.389L20.2797 21.727L22.9997 24V2.475C22.9317 1.137 21.7797 0 20.3517 0L3.58469 0.003C2.15769 0.003 0.999695 1.142 0.999695 2.48V18.72C0.999695 20.131 2.15569 21.196 3.57969 21.196ZM14.1277 5.683L14.0947 5.695L14.1067 5.683H14.1277ZM6.4967 6.952C8.32969 5.618 10.0287 5.682 10.0287 5.682L10.1657 5.817C7.9227 6.352 6.90569 7.354 6.90569 7.354C6.90569 7.354 7.17769 7.221 7.65269 7.018C10.6737 5.83 13.9727 5.916 17.0267 7.42C17.0267 7.42 16.0077 6.483 13.9027 5.883L14.0887 5.7C14.3797 5.701 15.9197 5.755 17.5677 6.96C17.5677 6.96 19.4117 10.11 19.4117 13.98C19.3507 13.906 18.2677 15.646 15.4807 15.706C15.4807 15.706 15.0087 15.172 14.6727 14.706C16.3027 14.238 16.9127 13.302 16.9127 13.302C16.3777 13.639 15.8897 13.839 15.4937 14.039C14.8847 14.307 14.2747 14.439 13.6657 14.574C10.7817 15.042 9.16269 14.259 7.63269 13.638L7.10969 13.372C7.10969 13.372 7.7187 14.308 9.2837 14.776C8.87269 15.245 8.46569 15.778 8.46569 15.778C5.67969 15.712 4.66369 13.972 4.66369 13.972C4.66369 10.096 6.4967 6.952 6.4967 6.952Z" fill="white"/>
<path d="M14.3082 12.7709C15.0192 12.7709 15.5982 12.1709 15.5982 11.4309C15.5982 10.6959 15.0222 10.0959 14.3082 10.0959V10.0989C13.6002 10.0989 13.0202 10.6969 13.0182 11.4369C13.0182 12.1709 13.5972 12.7709 14.3082 12.7709Z" fill="white"/>
<path d="M9.69033 12.7709C10.4013 12.7709 10.9803 12.1709 10.9803 11.4309C10.9803 10.6959 10.4053 10.0959 9.69433 10.0959L9.69033 10.0989C8.97933 10.0989 8.40033 10.6969 8.40033 11.4369C8.40033 12.1709 8.97933 12.7709 9.69033 12.7709Z" fill="white"/>
</g>
<defs>
<clipPath id="clip0">
<rect width="24" height="24" fill="white"/>
</clipPath>
</defs>
</svg>
