<svg width="24" height="24" viewBox="0 0 24 24" fill="none" xmlns="http://www.w3.org/2000/svg">
<g clip-path="url(#clip0)">
<path d="M23.9762 7.05607C23.9199 5.78085 23.7137 4.90416 23.4183 4.14449C23.1136 3.33812 22.6447 2.61617 22.0305 2.01602C21.4303 1.40652 20.7036 0.932921 19.9066 0.632936C19.1425 0.337529 18.2704 0.131312 16.9952 0.0750879C15.7104 0.0141019 15.3026 0 12.0441 0C8.7857 0 8.37784 0.0141019 7.09787 0.0703262C5.82266 0.126551 4.94596 0.332951 4.18648 0.628174C3.37992 0.932922 2.65798 1.40176 2.05783 2.01602C1.44833 2.61617 0.974913 3.34288 0.674745 4.13991C0.379338 4.90416 0.173121 5.77609 0.116897 7.0513C0.0559109 8.33604 0.0418091 8.7439 0.0418091 12.0023C0.0418091 15.2608 0.0559109 15.6686 0.112135 16.9486C0.16836 18.2238 0.37476 19.1005 0.670166 19.8602C0.974913 20.6666 1.44833 21.3885 2.05783 21.9887C2.65798 22.5982 3.38468 23.0718 4.18171 23.3718C4.94596 23.6672 5.8179 23.8734 7.09329 23.9296C8.37308 23.986 8.78112 23.9999 12.0396 23.9999C15.298 23.9999 15.7059 23.986 16.9858 23.9296C18.2611 23.8734 19.1378 23.6672 19.8972 23.3718C21.5102 22.7482 22.7854 21.4729 23.409 19.8602C23.7042 19.096 23.9106 18.2238 23.9668 16.9486C24.023 15.6686 24.0371 15.2608 24.0371 12.0023C24.0371 8.7439 24.0324 8.33604 23.9762 7.05607ZM21.8149 16.8549C21.7633 18.027 21.5664 18.6599 21.4023 19.0819C20.999 20.1274 20.1692 20.9572 19.1236 21.3605C18.7017 21.5246 18.0642 21.7215 16.8967 21.7729C15.6308 21.8293 15.2511 21.8433 12.0489 21.8433C8.84669 21.8433 8.46227 21.8293 7.20098 21.7729C6.02888 21.7215 5.39594 21.5246 4.97398 21.3605C4.45368 21.1682 3.98008 20.8634 3.59566 20.4649C3.19715 20.0758 2.8924 19.6069 2.7001 19.0866C2.53601 18.6647 2.33913 18.027 2.28767 16.8596C2.23126 15.5937 2.21734 15.2139 2.21734 12.0117C2.21734 8.80946 2.23126 8.42505 2.28767 7.16394C2.33913 5.99183 2.53601 5.3589 2.7001 4.93694C2.8924 4.41645 3.19715 3.94303 3.60042 3.55843C3.98942 3.15992 4.45826 2.85517 4.97874 2.66306C5.4007 2.49896 6.0384 2.30209 7.20574 2.25044C8.47161 2.19422 8.85145 2.18011 12.0535 2.18011C15.2605 2.18011 15.6401 2.19422 16.9014 2.25044C18.0735 2.30209 18.7065 2.49896 19.1284 2.66306C19.6487 2.85517 20.1223 3.15992 20.5067 3.55843C20.9052 3.94761 21.21 4.41645 21.4023 4.93694C21.5664 5.3589 21.7633 5.99641 21.8149 7.16394C21.8711 8.42981 21.8852 8.80946 21.8852 12.0117C21.8852 15.2139 21.8711 15.589 21.8149 16.8549Z" fill="white"/>
<path d="M12.0441 5.83716C8.64043 5.83716 5.87885 8.59856 5.87885 12.0024C5.87885 15.4063 8.64043 18.1677 12.0441 18.1677C15.448 18.1677 18.2094 15.4063 18.2094 12.0024C18.2094 8.59856 15.448 5.83716 12.0441 5.83716ZM12.0441 16.0017C9.83598 16.0017 8.04486 14.2107 8.04486 12.0024C8.04486 9.79411 9.83598 8.00317 12.0441 8.00317C14.2524 8.00317 16.0434 9.79411 16.0434 12.0024C16.0434 14.2107 14.2524 16.0017 12.0441 16.0017Z" fill="white"/>
<path d="M19.8928 5.59336C19.8928 6.3882 19.2484 7.03267 18.4533 7.03267C17.6585 7.03267 17.014 6.3882 17.014 5.59336C17.014 4.79834 17.6585 4.15405 18.4533 4.15405C19.2484 4.15405 19.8928 4.79834 19.8928 5.59336Z" fill="white"/>
</g>
<defs>
<clipPath id="clip0">
<rect width="24" height="24" fill="white"/>
</clipPath>
</defs>
</svg>
