<svg width="24" height="24" viewBox="0 0 24 24" fill="none" xmlns="http://www.w3.org/2000/svg">
<g clip-path="url(#clip0)">
<path d="M23.9761 7.05607C23.9199 5.78085 23.7137 4.90416 23.4182 4.14449C23.1135 3.33812 22.6447 2.61617 22.0304 2.01602C21.4303 1.40652 20.7035 0.932921 19.9065 0.632936C19.1425 0.337529 18.2703 0.131312 16.9951 0.0750879C15.7104 0.0141019 15.3025 0 12.0441 0C8.78564 0 8.37778 0.0141019 7.09781 0.0703262C5.8226 0.126551 4.9459 0.332951 4.18642 0.628174C3.37986 0.932922 2.65792 1.40176 2.05777 2.01602C1.44827 2.61617 0.974852 3.34288 0.674684 4.13991C0.379277 4.90416 0.17306 5.77609 0.116836 7.0513C0.0558499 8.33604 0.041748 8.7439 0.041748 12.0023C0.041748 15.2608 0.0558499 15.6686 0.112074 16.9486C0.168299 18.2238 0.374699 19.1005 0.670105 19.8602C0.974852 20.6666 1.44827 21.3885 2.05777 21.9887C2.65792 22.5982 3.38462 23.0718 4.18165 23.3718C4.9459 23.6672 5.81784 23.8734 7.09323 23.9296C8.37302 23.986 8.78106 23.9999 12.0395 23.9999C15.298 23.9999 15.7058 23.986 16.9858 23.9296C18.261 23.8734 19.1377 23.6672 19.8972 23.3718C21.5101 22.7482 22.7853 21.4729 23.4089 19.8602C23.7041 19.096 23.9105 18.2238 23.9668 16.9486C24.023 15.6686 24.0371 15.2608 24.0371 12.0023C24.0371 8.7439 24.0323 8.33604 23.9761 7.05607ZM21.8148 16.8549C21.7632 18.027 21.5663 18.6599 21.4022 19.0819C20.999 20.1274 20.1691 20.9572 19.1236 21.3605C18.7016 21.5246 18.0641 21.7215 16.8966 21.7729C15.6307 21.8293 15.2511 21.8433 12.0488 21.8433C8.84662 21.8433 8.46221 21.8293 7.20092 21.7729C6.02881 21.7215 5.39588 21.5246 4.97392 21.3605C4.45362 21.1682 3.98002 20.8634 3.5956 20.4649C3.19709 20.0758 2.89234 19.6069 2.70004 19.0866C2.53595 18.6647 2.33907 18.027 2.28761 16.8596C2.2312 15.5937 2.21728 15.2139 2.21728 12.0117C2.21728 8.80946 2.2312 8.42505 2.28761 7.16394C2.33907 5.99183 2.53595 5.3589 2.70004 4.93694C2.89234 4.41645 3.19709 3.94303 3.60036 3.55843C3.98936 3.15992 4.4582 2.85517 4.97868 2.66306C5.40064 2.49896 6.03834 2.30209 7.20568 2.25044C8.47155 2.19422 8.85139 2.18011 12.0534 2.18011C15.2604 2.18011 15.6401 2.19422 16.9014 2.25044C18.0735 2.30209 18.7064 2.49896 19.1284 2.66306C19.6487 2.85517 20.1223 3.15992 20.5067 3.55843C20.9052 3.94761 21.2099 4.41645 21.4022 4.93694C21.5663 5.3589 21.7632 5.99641 21.8148 7.16394C21.8711 8.42981 21.8852 8.80946 21.8852 12.0117C21.8852 15.2139 21.8711 15.589 21.8148 16.8549Z" fill="#101217"/>
<path d="M12.0442 5.83704C8.64049 5.83704 5.87891 8.59844 5.87891 12.0023C5.87891 15.4062 8.64049 18.1676 12.0442 18.1676C15.448 18.1676 18.2094 15.4062 18.2094 12.0023C18.2094 8.59844 15.448 5.83704 12.0442 5.83704ZM12.0442 16.0016C9.83604 16.0016 8.04492 14.2106 8.04492 12.0023C8.04492 9.79399 9.83604 8.00305 12.0442 8.00305C14.2525 8.00305 16.0434 9.79399 16.0434 12.0023C16.0434 14.2106 14.2525 16.0016 12.0442 16.0016Z" fill="#101217"/>
<path d="M19.8927 5.59336C19.8927 6.3882 19.2482 7.03267 18.4532 7.03267C17.6584 7.03267 17.0139 6.3882 17.0139 5.59336C17.0139 4.79834 17.6584 4.15405 18.4532 4.15405C19.2482 4.15405 19.8927 4.79834 19.8927 5.59336Z" fill="#101217"/>
</g>
<defs>
<clipPath id="clip0">
<rect width="24" height="24" fill="white"/>
</clipPath>
</defs>
</svg>
