<svg width="19" height="19" viewBox="0 0 19 19" fill="none" xmlns="http://www.w3.org/2000/svg">
<path d="M11.4531 13.0953C11.4179 13.0604 11.3703 13.0408 11.3207 13.0408C11.2711 13.0408 11.2235 13.0604 11.1883 13.0953L8.46483 15.8187C7.2039 17.0796 5.07577 17.2132 3.68359 15.8187C2.28906 14.4242 2.42265 12.2984 3.68359 11.0374L6.40702 8.31401C6.47968 8.24136 6.47968 8.12183 6.40702 8.04917L5.47421 7.11636C5.43897 7.08146 5.39138 7.06189 5.34179 7.06189C5.2922 7.06189 5.24461 7.08146 5.20937 7.11636L2.48593 9.83979C0.503122 11.8226 0.503122 15.0312 2.48593 17.0117C4.46874 18.9921 7.67733 18.9945 9.6578 17.0117L12.3812 14.2882C12.4539 14.2156 12.4539 14.096 12.3812 14.0234L11.4531 13.0953ZM17.514 1.98589C15.5312 0.00307617 12.3226 0.00307617 10.3422 1.98589L7.6164 4.70933C7.5815 4.74457 7.56193 4.79215 7.56193 4.84175C7.56193 4.89134 7.5815 4.93893 7.6164 4.97417L8.54686 5.90464C8.61952 5.97729 8.73905 5.97729 8.81171 5.90464L11.5351 3.1812C12.7961 1.92026 14.9242 1.78667 16.3164 3.1812C17.7109 4.57573 17.5773 6.70151 16.3164 7.96245L13.593 10.6859C13.5581 10.7211 13.5385 10.7687 13.5385 10.8183C13.5385 10.8679 13.5581 10.9155 13.593 10.9507L14.5258 11.8835C14.5984 11.9562 14.718 11.9562 14.7906 11.8835L17.514 9.16011C19.4945 7.17729 19.4945 3.9687 17.514 1.98589ZM12.2992 6.22573C12.264 6.19084 12.2164 6.17126 12.1668 6.17126C12.1172 6.17126 12.0696 6.19084 12.0344 6.22573L6.72577 11.532C6.69088 11.5672 6.6713 11.6148 6.6713 11.6644C6.6713 11.714 6.69088 11.7616 6.72577 11.7968L7.6539 12.7249C7.72655 12.7976 7.84609 12.7976 7.91874 12.7249L13.225 7.4187C13.2976 7.34605 13.2976 7.22651 13.225 7.15386L12.2992 6.22573Z" fill="white" fill-opacity="0.9"/>
</svg>
