<svg width="24" height="24" viewBox="0 0 24 24" fill="none" xmlns="http://www.w3.org/2000/svg">
<g clip-path="url(#clip0)">
<path d="M23.9935 24V23.999H23.9995V15.197C23.9995 10.891 23.0725 7.57397 18.0385 7.57397C15.6185 7.57397 13.9945 8.90198 13.3315 10.161H13.2615V7.97597H8.48853V23.999H13.4585V16.065C13.4585 13.976 13.8545 11.956 16.4415 11.956C18.9905 11.956 19.0285 14.34 19.0285 16.199V24H23.9935Z" fill="#101217"/>
<path d="M0.39624 7.97711H5.37224V24.0001H0.39624V7.97711Z" fill="#101217"/>
<path d="M2.882 0C1.291 0 0 1.291 0 2.882C0 4.473 1.291 5.791 2.882 5.791C4.473 5.791 5.764 4.473 5.764 2.882C5.763 1.291 4.472 0 2.882 0V0Z" fill="#101217"/>
</g>
<defs>
<clipPath id="clip0">
<rect width="24" height="24" fill="white"/>
</clipPath>
</defs>
</svg>
